solid OpenSCAD_Model
  facet normal -1 0 0
    outer loop
      vertex -14 -2 -1
      vertex -14 -2 1
      vertex -14 24 -1
    endloop
  endfacet
  facet normal -1 0 0
    outer loop
      vertex -14 24 -1
      vertex -14 -2 1
      vertex -14 24 1
    endloop
  endfacet
  facet normal -0.980785 -0.19509 0
    outer loop
      vertex -14 -2 -1
      vertex -13.8478 -2.76537 -1
      vertex -14 -2 1
    endloop
  endfacet
  facet normal -0.980785 -0.19509 0
    outer loop
      vertex -14 -2 1
      vertex -13.8478 -2.76537 -1
      vertex -13.8478 -2.76537 1
    endloop
  endfacet
  facet normal 0 0 -1
    outer loop
      vertex -14 -2 -1
      vertex -14 24 -1
      vertex -13.8478 -2.76537 -1
    endloop
  endfacet
  facet normal 0 0 -1
    outer loop
      vertex -13.8478 -2.76537 -1
      vertex -14 24 -1
      vertex -13.8478 24.7654 -1
    endloop
  endfacet
  facet normal 0 0 -1
    outer loop
      vertex -13.8478 -2.76537 -1
      vertex -13.8478 24.7654 -1
      vertex -13.4142 25.4142 -1
    endloop
  endfacet
  facet normal 0 0 -1
    outer loop
      vertex -13.8478 -2.76537 -1
      vertex -13.4142 25.4142 -1
      vertex -12.7654 25.8478 -1
    endloop
  endfacet
  facet normal 0 0 -1
    outer loop
      vertex -13.8478 -2.76537 -1
      vertex -12.7654 25.8478 -1
      vertex -12 26 -1
    endloop
  endfacet
  facet normal 0 0 -1
    outer loop
      vertex -13.8478 -2.76537 -1
      vertex -12 26 -1
      vertex 34 26 -1
    endloop
  endfacet
  facet normal 0 0 -1
    outer loop
      vertex -13.8478 -2.76537 -1
      vertex 34 26 -1
      vertex 34.7654 25.8478 -1
    endloop
  endfacet
  facet normal 0 0 -1
    outer loop
      vertex -13.8478 -2.76537 -1
      vertex 34.7654 25.8478 -1
      vertex 35.4142 25.4142 -1
    endloop
  endfacet
  facet normal 0 0 -1
    outer loop
      vertex -13.8478 -2.76537 -1
      vertex 35.4142 25.4142 -1
      vertex 35.8478 24.7654 -1
    endloop
  endfacet
  facet normal 0 0 -1
    outer loop
      vertex -13.8478 -2.76537 -1
      vertex 35.8478 24.7654 -1
      vertex 36 24 -1
    endloop
  endfacet
  facet normal 0 0 -1
    outer loop
      vertex -13.8478 -2.76537 -1
      vertex 36 24 -1
      vertex 36 -2 -1
    endloop
  endfacet
  facet normal 0 0 -1
    outer loop
      vertex -13.8478 -2.76537 -1
      vertex 36 -2 -1
      vertex 35.8478 -2.76537 -1
    endloop
  endfacet
  facet normal 0 0 -1
    outer loop
      vertex -13.8478 -2.76537 -1
      vertex 35.8478 -2.76537 -1
      vertex 35.4142 -3.41421 -1
    endloop
  endfacet
  facet normal 0 0 -1
    outer loop
      vertex -13.8478 -2.76537 -1
      vertex 35.4142 -3.41421 -1
      vertex 34.7654 -3.84776 -1
    endloop
  endfacet
  facet normal 0 0 -1
    outer loop
      vertex -13.8478 -2.76537 -1
      vertex 34.7654 -3.84776 -1
      vertex 34 -4 -1
    endloop
  endfacet
  facet normal 0 0 -1
    outer loop
      vertex -13.8478 -2.76537 -1
      vertex 34 -4 -1
      vertex -12 -4 -1
    endloop
  endfacet
  facet normal 0 0 -1
    outer loop
      vertex -13.8478 -2.76537 -1
      vertex -12 -4 -1
      vertex -12.7654 -3.84776 -1
    endloop
  endfacet
  facet normal 0 0 -1
    outer loop
      vertex -13.8478 -2.76537 -1
      vertex -12.7654 -3.84776 -1
      vertex -13.4142 -3.41421 -1
    endloop
  endfacet
  facet normal -0.980785 0.19509 0
    outer loop
      vertex -14 24 -1
      vertex -14 24 1
      vertex -13.8478 24.7654 -1
    endloop
  endfacet
  facet normal -0.980785 0.19509 0
    outer loop
      vertex -13.8478 24.7654 -1
      vertex -14 24 1
      vertex -13.8478 24.7654 1
    endloop
  endfacet
  facet normal 0 0 1
    outer loop
      vertex -13.8478 -2.76537 1
      vertex -13.4142 -3.41421 1
      vertex -12.7654 -3.84776 1
    endloop
  endfacet
  facet normal 0 0 1
    outer loop
      vertex 34 -4 1
      vertex -13.8478 -2.76537 1
      vertex -12 -4 1
    endloop
  endfacet
  facet normal 0 0 1
    outer loop
      vertex -12 -4 1
      vertex -13.8478 -2.76537 1
      vertex -12.7654 -3.84776 1
    endloop
  endfacet
  facet normal 0 0 1
    outer loop
      vertex 34.7654 -3.84776 1
      vertex -13.8478 -2.76537 1
      vertex 34 -4 1
    endloop
  endfacet
  facet normal 0 0 1
    outer loop
      vertex 35.4142 -3.41421 1
      vertex -13.8478 -2.76537 1
      vertex 34.7654 -3.84776 1
    endloop
  endfacet
  facet normal 0 0 1
    outer loop
      vertex 35.8478 -2.76537 1
      vertex -13.8478 -2.76537 1
      vertex 35.4142 -3.41421 1
    endloop
  endfacet
  facet normal 0 0 1
    outer loop
      vertex 36 -2 1
      vertex -13.8478 -2.76537 1
      vertex 35.8478 -2.76537 1
    endloop
  endfacet
  facet normal 0 0 1
    outer loop
      vertex 22.2 0 1
      vertex -13.8478 -2.76537 1
      vertex 36 -2 1
    endloop
  endfacet
  facet normal 0 0 1
    outer loop
      vertex 22.2 22.2 1
      vertex 22.2 0 1
      vertex 36 24 1
    endloop
  endfacet
  facet normal 0 0 1
    outer loop
      vertex -12.7654 25.8478 1
      vertex -13.8478 -2.76537 1
      vertex -12 26 1
    endloop
  endfacet
  facet normal 0 0 1
    outer loop
      vertex -13.4142 25.4142 1
      vertex -13.8478 -2.76537 1
      vertex -12.7654 25.8478 1
    endloop
  endfacet
  facet normal 0 0 1
    outer loop
      vertex -13.8478 24.7654 1
      vertex -13.8478 -2.76537 1
      vertex -13.4142 25.4142 1
    endloop
  endfacet
  facet normal 0 0 1
    outer loop
      vertex -14 24 1
      vertex -13.8478 -2.76537 1
      vertex -13.8478 24.7654 1
    endloop
  endfacet
  facet normal 0 0 1
    outer loop
      vertex -14 -2 1
      vertex -13.8478 -2.76537 1
      vertex -14 24 1
    endloop
  endfacet
  facet normal 0 0 1
    outer loop
      vertex -12 26 1
      vertex 0 22.2 1
      vertex 34 26 1
    endloop
  endfacet
  facet normal 0 0 1
    outer loop
      vertex -12 26 1
      vertex -13.8478 -2.76537 1
      vertex 0 22.2 1
    endloop
  endfacet
  facet normal 0 0 1
    outer loop
      vertex 0 22.2 1
      vertex 22.2 22.2 1
      vertex 34 26 1
    endloop
  endfacet
  facet normal 0 0 1
    outer loop
      vertex 36 24 1
      vertex 22.2 0 1
      vertex 36 -2 1
    endloop
  endfacet
  facet normal 0 0 1
    outer loop
      vertex 0 0 1
      vertex -13.8478 -2.76537 1
      vertex 22.2 0 1
    endloop
  endfacet
  facet normal 0 0 1
    outer loop
      vertex 22.2 22.2 1
      vertex 34.7654 25.8478 1
      vertex 34 26 1
    endloop
  endfacet
  facet normal 0 0 1
    outer loop
      vertex 22.2 22.2 1
      vertex 35.4142 25.4142 1
      vertex 34.7654 25.8478 1
    endloop
  endfacet
  facet normal 0 0 1
    outer loop
      vertex 22.2 22.2 1
      vertex 35.8478 24.7654 1
      vertex 35.4142 25.4142 1
    endloop
  endfacet
  facet normal 0 0 1
    outer loop
      vertex 22.2 22.2 1
      vertex 36 24 1
      vertex 35.8478 24.7654 1
    endloop
  endfacet
  facet normal 0 0 1
    outer loop
      vertex 0 0 1
      vertex 0 22.2 1
      vertex -13.8478 -2.76537 1
    endloop
  endfacet
  facet normal -0.83147 -0.55557 0
    outer loop
      vertex -13.8478 -2.76537 -1
      vertex -13.4142 -3.41421 -1
      vertex -13.8478 -2.76537 1
    endloop
  endfacet
  facet normal -0.83147 -0.55557 0
    outer loop
      vertex -13.8478 -2.76537 1
      vertex -13.4142 -3.41421 -1
      vertex -13.4142 -3.41421 1
    endloop
  endfacet
  facet normal -0.55557 -0.83147 0
    outer loop
      vertex -13.4142 -3.41421 1
      vertex -13.4142 -3.41421 -1
      vertex -12.7654 -3.84776 -1
    endloop
  endfacet
  facet normal -0.55557 -0.83147 0
    outer loop
      vertex -12.7654 -3.84776 1
      vertex -13.4142 -3.41421 1
      vertex -12.7654 -3.84776 -1
    endloop
  endfacet
  facet normal -0.19509 -0.980785 0
    outer loop
      vertex -12.7654 -3.84776 1
      vertex -12.7654 -3.84776 -1
      vertex -12 -4 -1
    endloop
  endfacet
  facet normal -0.19509 -0.980785 0
    outer loop
      vertex -12 -4 1
      vertex -12.7654 -3.84776 1
      vertex -12 -4 -1
    endloop
  endfacet
  facet normal 0 -1 0
    outer loop
      vertex -12 -4 1
      vertex -12 -4 -1
      vertex 34 -4 -1
    endloop
  endfacet
  facet normal 0 -1 0
    outer loop
      vertex 34 -4 1
      vertex -12 -4 1
      vertex 34 -4 -1
    endloop
  endfacet
  facet normal 0.19509 -0.980785 0
    outer loop
      vertex 34 -4 1
      vertex 34 -4 -1
      vertex 34.7654 -3.84776 -1
    endloop
  endfacet
  facet normal 0.19509 -0.980785 0
    outer loop
      vertex 34.7654 -3.84776 1
      vertex 34 -4 1
      vertex 34.7654 -3.84776 -1
    endloop
  endfacet
  facet normal 0.55557 -0.83147 0
    outer loop
      vertex 34.7654 -3.84776 1
      vertex 34.7654 -3.84776 -1
      vertex 35.4142 -3.41421 -1
    endloop
  endfacet
  facet normal 0.55557 -0.83147 0
    outer loop
      vertex 35.4142 -3.41421 1
      vertex 34.7654 -3.84776 1
      vertex 35.4142 -3.41421 -1
    endloop
  endfacet
  facet normal 0.83147 -0.55557 0
    outer loop
      vertex 35.4142 -3.41421 1
      vertex 35.4142 -3.41421 -1
      vertex 35.8478 -2.76537 -1
    endloop
  endfacet
  facet normal 0.83147 -0.55557 0
    outer loop
      vertex 35.8478 -2.76537 1
      vertex 35.4142 -3.41421 1
      vertex 35.8478 -2.76537 -1
    endloop
  endfacet
  facet normal 0.980785 -0.19509 0
    outer loop
      vertex 35.8478 -2.76537 1
      vertex 35.8478 -2.76537 -1
      vertex 36 -2 -1
    endloop
  endfacet
  facet normal 0.980785 -0.19509 0
    outer loop
      vertex 36 -2 1
      vertex 35.8478 -2.76537 1
      vertex 36 -2 -1
    endloop
  endfacet
  facet normal 1 0 0
    outer loop
      vertex 36 -2 1
      vertex 36 -2 -1
      vertex 36 24 -1
    endloop
  endfacet
  facet normal 1 0 0
    outer loop
      vertex 36 24 1
      vertex 36 -2 1
      vertex 36 24 -1
    endloop
  endfacet
  facet normal 0.980785 0.19509 0
    outer loop
      vertex 36 24 -1
      vertex 35.8478 24.7654 -1
      vertex 35.8478 24.7654 1
    endloop
  endfacet
  facet normal 0.980785 0.19509 0
    outer loop
      vertex 36 24 1
      vertex 36 24 -1
      vertex 35.8478 24.7654 1
    endloop
  endfacet
  facet normal 0.83147 0.55557 0
    outer loop
      vertex 35.8478 24.7654 -1
      vertex 35.4142 25.4142 -1
      vertex 35.4142 25.4142 1
    endloop
  endfacet
  facet normal 0.83147 0.55557 0
    outer loop
      vertex 35.8478 24.7654 1
      vertex 35.8478 24.7654 -1
      vertex 35.4142 25.4142 1
    endloop
  endfacet
  facet normal 0.55557 0.83147 0
    outer loop
      vertex 34.7654 25.8478 -1
      vertex 34.7654 25.8478 1
      vertex 35.4142 25.4142 -1
    endloop
  endfacet
  facet normal 0.55557 0.83147 0
    outer loop
      vertex 35.4142 25.4142 -1
      vertex 34.7654 25.8478 1
      vertex 35.4142 25.4142 1
    endloop
  endfacet
  facet normal 0.19509 0.980785 0
    outer loop
      vertex 34 26 -1
      vertex 34 26 1
      vertex 34.7654 25.8478 -1
    endloop
  endfacet
  facet normal 0.19509 0.980785 0
    outer loop
      vertex 34.7654 25.8478 -1
      vertex 34 26 1
      vertex 34.7654 25.8478 1
    endloop
  endfacet
  facet normal 0 1 0
    outer loop
      vertex -12 26 -1
      vertex -12 26 1
      vertex 34 26 -1
    endloop
  endfacet
  facet normal 0 1 0
    outer loop
      vertex 34 26 -1
      vertex -12 26 1
      vertex 34 26 1
    endloop
  endfacet
  facet normal -0.19509 0.980785 0
    outer loop
      vertex -12.7654 25.8478 -1
      vertex -12.7654 25.8478 1
      vertex -12 26 -1
    endloop
  endfacet
  facet normal -0.19509 0.980785 0
    outer loop
      vertex -12 26 -1
      vertex -12.7654 25.8478 1
      vertex -12 26 1
    endloop
  endfacet
  facet normal -0.55557 0.83147 0
    outer loop
      vertex -13.4142 25.4142 -1
      vertex -13.4142 25.4142 1
      vertex -12.7654 25.8478 -1
    endloop
  endfacet
  facet normal -0.55557 0.83147 0
    outer loop
      vertex -12.7654 25.8478 -1
      vertex -13.4142 25.4142 1
      vertex -12.7654 25.8478 1
    endloop
  endfacet
  facet normal -0.83147 0.55557 0
    outer loop
      vertex -13.8478 24.7654 -1
      vertex -13.8478 24.7654 1
      vertex -13.4142 25.4142 -1
    endloop
  endfacet
  facet normal -0.83147 0.55557 0
    outer loop
      vertex -13.4142 25.4142 -1
      vertex -13.8478 24.7654 1
      vertex -13.4142 25.4142 1
    endloop
  endfacet
  facet normal -1 0 0
    outer loop
      vertex 0 0 1
      vertex 0 0 25
      vertex 0 22.2 1
    endloop
  endfacet
  facet normal -1 0 0
    outer loop
      vertex 0 22.2 1
      vertex 0 0 25
      vertex 0 22.2 25
    endloop
  endfacet
  facet normal 0 1 0
    outer loop
      vertex 0 22.2 1
      vertex 0 22.2 25
      vertex 22.2 22.2 1
    endloop
  endfacet
  facet normal 0 1 0
    outer loop
      vertex 22.2 22.2 1
      vertex 0 22.2 25
      vertex 22.2 22.2 25
    endloop
  endfacet
  facet normal 0 -1 0
    outer loop
      vertex 0 0 25
      vertex 0 0 1
      vertex 22.2 0 1
    endloop
  endfacet
  facet normal 0 -1 0
    outer loop
      vertex 22.2 0 25
      vertex 0 0 25
      vertex 22.2 0 1
    endloop
  endfacet
  facet normal 1 0 0
    outer loop
      vertex 22.2 0 25
      vertex 22.2 0 1
      vertex 22.2 22.2 1
    endloop
  endfacet
  facet normal 1 0 0
    outer loop
      vertex 22.2 22.2 25
      vertex 22.2 0 25
      vertex 22.2 22.2 1
    endloop
  endfacet
  facet normal 0 0 1
    outer loop
      vertex 1 1 25
      vertex 0 0 25
      vertex 22.2 0 25
    endloop
  endfacet
  facet normal 0 0 1
    outer loop
      vertex 21 1 25
      vertex 1 1 25
      vertex 22.2 0 25
    endloop
  endfacet
  facet normal 0 0 1
    outer loop
      vertex 0 22.2 25
      vertex 0 0 25
      vertex 1 1 25
    endloop
  endfacet
  facet normal 0 0 1
    outer loop
      vertex 21 21 25
      vertex 21 1 25
      vertex 22.2 0 25
    endloop
  endfacet
  facet normal 0 0 1
    outer loop
      vertex 0 22.2 25
      vertex 1 1 25
      vertex 1 21 25
    endloop
  endfacet
  facet normal 0 0 1
    outer loop
      vertex 22.2 22.2 25
      vertex 21 21 25
      vertex 22.2 0 25
    endloop
  endfacet
  facet normal 0 0 1
    outer loop
      vertex 22.2 22.2 25
      vertex 0 22.2 25
      vertex 21 21 25
    endloop
  endfacet
  facet normal 0 0 1
    outer loop
      vertex 1 21 25
      vertex 21 21 25
      vertex 0 22.2 25
    endloop
  endfacet
  facet normal 1 0 0
    outer loop
      vertex 1 21 1
      vertex 1 21 25
      vertex 1 1 25
    endloop
  endfacet
  facet normal 1 0 0
    outer loop
      vertex 1 1 1
      vertex 1 21 1
      vertex 1 1 25
    endloop
  endfacet
  facet normal 0 1 0
    outer loop
      vertex 21 1 25
      vertex 21 1 1
      vertex 1 1 25
    endloop
  endfacet
  facet normal 0 1 0
    outer loop
      vertex 1 1 25
      vertex 21 1 1
      vertex 1 1 1
    endloop
  endfacet
  facet normal -1 0 0
    outer loop
      vertex 21 21 25
      vertex 21 21 1
      vertex 21 1 25
    endloop
  endfacet
  facet normal -1 0 0
    outer loop
      vertex 21 1 25
      vertex 21 21 1
      vertex 21 1 1
    endloop
  endfacet
  facet normal 0 -1 0
    outer loop
      vertex 21 21 1
      vertex 21 21 25
      vertex 1 21 25
    endloop
  endfacet
  facet normal 0 -1 0
    outer loop
      vertex 1 21 1
      vertex 21 21 1
      vertex 1 21 25
    endloop
  endfacet
  facet normal 0 0 1
    outer loop
      vertex 21 1 1
      vertex 21 21 1
      vertex 1 21 1
    endloop
  endfacet
  facet normal 0 0 1
    outer loop
      vertex 1 1 1
      vertex 21 1 1
      vertex 1 21 1
    endloop
  endfacet
endsolid OpenSCAD_Model
